PathFileType	4	(X/Y/Z)	C:/Users/opensim2020/Desktop/walking_exp_matlab/subject01_walking06_straight_01.trc																																																																																																																															
DataRate	CameraRate	NumFrames	NumMarkers	Units	OrigDataRate	OrigDataStartFrame	OrigNumFrames																																																																																																																											
100	100	4	43	mm	100	985	251																																																																																																																											
Frame#	Time	LFHD			RFHD			LBHD			RBHD			C7			T10			CLAV			STRN			RBAK			LSHO			LUPA			LELB			LFRM			LWRA			LWRB			LFIN			RSHO			RUPA			RELB			RFRM			RWRA			RWRB			RFIN			LASI			RASI			LPSI			RPSI			LTHI			LKNE			LTIB			LANK			LHEE			LTOE			RTHI			RKNE			RTIB			RANK			RHEE			RTOE			*39			*40			*41			*42		
		X1	Y1	Z1	X2	Y2	Z2	X3	Y3	Z3	X4	Y4	Z4	X5	Y5	Z5	X6	Y6	Z6	X7	Y7	Z7	X8	Y8	Z8	X9	Y9	Z9	X10	Y10	Z10	X11	Y11	Z11	X12	Y12	Z12	X13	Y13	Z13	X14	Y14	Z14	X15	Y15	Z15	X16	Y16	Z16	X17	Y17	Z17	X18	Y18	Z18	X19	Y19	Z19	X20	Y20	Z20	X21	Y21	Z21	X22	Y22	Z22	X23	Y23	Z23	X24	Y24	Z24	X25	Y25	Z25	X26	Y26	Z26	X27	Y27	Z27	X28	Y28	Z28	X29	Y29	Z29	X30	Y30	Z30	X31	Y31	Z31	X32	Y32	Z32	X33	Y33	Z33	X34	Y34	Z34	X35	Y35	Z35	X36	Y36	Z36	X37	Y37	Z37	X38	Y38	Z38	X39	Y39	Z39	X40	Y40	Z40	X41	Y41	Z41	X42	Y42	Z42	X43	Y43	Z43
																																																																																																																																		
220	2.19	564.24341	1675.6228	1405.90002	596.77234	1687.77344	1514.83167	470.51962	1597.17725	1435.63147	502.38715	1608.53442	1550.87866	474.19342	1428.45996	1463.34558	449.04782	1134.88013	1467.39783	621.57172	1367.33252	1462.23499	670.85895	1213.18701	1458.98425	427.64172	1232.8252	1539.60303	559.80237	1392.32922	1302.4021	544.69965	1207.66223	1215.92944	541.03485	1056.89258	1211.99121	588.48682	952.77765	1188.25903	672.80994	841.89868	1213.36084	621.38092	835.01349	1182.52832	672.89618	765.29297	1181.99707	557.83813	1391.54736	1613.81165	510.27533	1190.57532	1715.76953	517.33026	1065.37708	1719.74353	557.96124	950.56067	1748.11377	650.54449	844.97815	1726.80737	607.79199	839.42462	1765.82788	655.28467	768.2572	1763.1261	635.23126	935.82709	1363.80322	626.2937	933.32867	1581.03442	445.90381	940.58228	1406.73254	441.60864	937.38904	1552.28845	637.802	602.89905	1322.39783	642.67401	468.80524	1348.57581	597.11108	283.85648	1345.10999	562.5376	72.08346	1404.71301	513.45966	43.58683	1455.11072	709.4035	37.94983	1406.93005	634.8667	601.93854	1647.98792	663.05231	447.87418	1634.66248	513.60925	357.17084	1632.43054	354.32361	229.40112	1582.92358	305.10889	240.77158	1523.02832	386.44513	88.58728	1597.05237	570.27594	1715.31311	1496.34973	1973.20654	1023.41028	-3101.98389	2012.68738	1022.1416	-3140.57446	NaN	NaN	NaN
221	2.2	573.8985	1676.20166	1405.18298	606.54626	1688.3606	1513.95056	480.07391	1597.85779	1434.99573	512.13489	1609.24902	1550.22046	483.52921	1429.18762	1462.86462	458.13263	1135.62964	1466.71094	630.89948	1367.88733	1461.66919	679.91431	1213.61389	1458.20935	436.84161	1233.47864	1538.9469	569.0564	1392.95654	1301.90027	555.41589	1208.44775	1215.20667	553.56659	1057.62207	1210.3761	603.1239	954.51874	1186.59106	689.79675	845.52301	1211.34753	638.50458	837.45319	1180.70422	691.76642	769.2879	1179.52917	567.13361	1392.30261	1613.40833	518.94629	1191.07068	1714.83936	525.27972	1066.0354	1718.42273	564.0307	950.81415	1746.90283	654.2334	843.1618	1725.33215	611.66144	838.63318	1764.70605	657.56805	766.39667	1761.92371	643.69244	936.3833	1362.41235	635.79041	934.53674	1579.5542	454.4953	941.125	1406.82471	451.33005	938.61786	1552.63538	642.92645	602.50775	1321.96179	646.36884	468.22281	1348.1875	599.5235	283.75876	1345.00464	562.66132	72.15173	1404.72498	513.36011	43.90769	1455.04492	709.52069	37.83626	1406.9209	651.80145	604.72479	1646.8905	681.76947	450.77759	1632.55225	533.83185	358.64133	1631.59717	376.77216	227.20276	1582.98218	326.08029	236.32956	1523.66736	415.80234	88.67153	1597.7887	580.04944	1716.00281	1495.59167	1973.198	1023.38074	-3101.81934	2012.57776	1022.04797	-3140.53589	NaN	NaN	NaN
222	2.21	583.36908	1676.80151	1404.36145	616.31384	1688.93262	1513.16406	489.59753	1598.50623	1434.50989	521.86835	1609.9624	1549.63977	492.86139	1429.82483	1462.33643	467.17139	1136.34021	1466.19275	640.16852	1368.37915	1461.03931	688.92407	1214.08936	1457.39771	446.08115	1234.11328	1538.40894	578.21735	1393.60681	1301.40967	565.90417	1209.31824	1214.44775	565.86334	1058.37708	1209.0249	617.80243	956.30255	1184.98938	706.63251	849.33789	1209.38245	655.43005	840.05176	1178.98096	710.3656	773.5094	1177.1123	576.40179	1392.87805	1612.8667	527.4541	1191.54517	1713.95667	533.0603	1066.6582	1717.06909	570.12671	951.03162	1745.73096	658.30481	841.66638	1724.39172	615.57965	837.98138	1763.67896	659.9068	764.61829	1760.71765	651.76556	936.7478	1360.95471	645.23541	935.72217	1578.0481	463.15659	941.62366	1406.97314	461.05865	939.58325	1552.80066	648.04193	602.07941	1321.53516	649.88666	467.80814	1347.69299	601.30237	283.99564	1344.76379	562.94287	72.41043	1404.77075	513.41803	44.29463	1455.05615	709.7124	37.73864	1406.95251	666.65961	607.56464	1645.35107	700.23303	454.15671	1631.01221	553.86194	359.44836	1630.72437	399.97202	224.03317	1583.26086	347.48886	230.75035	1524.89148	446.17871	87.97236	1597.7157	589.83289	1716.60254	1494.81897	1973.11511	1023.72137	-3101.98315	2012.61462	1022.1344	-3140.61133	NaN	NaN	NaN
223	2.22	593.04498	1677.33142	1403.84253	626.13245	1689.47009	1512.51135	499.10098	1599.24133	1434.0697	531.60687	1610.65356	1549.15576	502.31573	1430.36121	1461.95813	476.22977	1137.0426	1465.62158	649.46552	1368.90869	1460.39233	697.97375	1214.51477	1456.5896	455.32016	1234.88123	1538.05481	587.32019	1394.28564	1300.97546	576.1687	1210.14502	1213.64209	578.14557	1059.14648	1207.81897	632.13202	958.24548	1183.51294	723.31738	853.25653	1207.4989	672.22528	842.80811	1177.35864	728.9093	777.84601	1174.7229	585.87415	1393.4231	1612.41162	535.97565	1192.0813	1713.15393	540.75439	1067.26599	1715.82251	576.05438	951.19287	1744.58179	662.15833	840.12415	1723.16956	619.66187	837.51001	1762.76355	662.34924	763.03198	1759.55457	660.02368	937.19446	1359.54285	654.6344	936.86926	1576.4928	471.68262	942.1571	1407.22302	470.47522	940.8371	1553.33557	652.99231	601.66919	1321.09595	653.11536	467.40903	1347.02039	602.32843	284.18613	1344.4552	563.16309	72.61979	1404.78125	513.56531	44.72936	1455.1106	709.8092	37.68583	1406.9093	682.11383	610.64539	1644.50513	718.17053	457.86429	1629.59253	573.65961	359.26395	1629.46631	423.65207	219.55235	1583.37952	369.58508	223.73422	1526.18286	477.21808	86.37763	1596.99597	599.64703	1717.18677	1494.18787	1973.06201	1023.31213	-3102.03784	2012.60767	1022.04462	-3140.75269	NaN	NaN	NaN
